<svg xmlns="http://www.w3.org/2000/svg" width="74" height="74" viewBox="0 0 74 74">
  <g id="Groupe_48" data-name="Groupe 48" transform="translate(-922 -1851)">
    <g id="Groupe_847" data-name="Groupe 847">
      <path id="Tracé_4360" data-name="Tracé 4360" d="M961.913,1897.541l7.249-6.614,10.475,10.276a3.8,3.8,0,0,1,0,4.555c-1.684,2.593-5.339,3.228-5.339,3.228l-2.723-1.492-9.389-9.1Z" fill="#FFFFFF"/>
      <path id="Tracé_36" data-name="Tracé 36" d="M970.758,1866.984l2.4,2.1-4.491,4.8.968,4.46,4.664.94,4.273-4.211,2.225,2.078-6.148,6.114-5.572-1.53-6.638,7.026-3.394-3.835,6.614-6.582-.961-6.026Z" fill="#2a768d"/>
      <path id="Tracé_37" data-name="Tracé 37" d="M970.01,1867.2l2.5,2.442-4.049,4.656.806,4.565,4.871.755,3.955-4.688,2.058,2.764-5.7,6.094-5.122-1.555-7.389,6.879-3.291-3.157,6.607-7.022-1.083-5.352Z" transform="translate(1885.464 3793.616) rotate(-179)" fill="#2a768d"/>
      <path id="Tracé_4352" data-name="Tracé 4352" d="M938.591,1871.687l4.248-4.4,3.859,3.849v2.224l15.522,15.734,2.336-2.631,2.309,2.2-1.284,1.4,2.174,2.128,1.315-1.265,10.279,10.107a5.033,5.033,0,0,1,.849,1.548,3.665,3.665,0,0,1-1.162,3.571c.05.042-1.8,1.676-1.8,1.676s-2.575,2.066-4.995,0c-.207-.073-10.513-10.193-10.513-10.193l1.265-1.174-2.053-1.935-1.479,1.325-1.811-2.082,2.543-2.542-3.759-3.913-12.255-11.662H941.71l-3.544-3.375Z" fill="none" stroke="#080808" stroke-width="1"/>
      <path id="Tracé_4353" data-name="Tracé 4353" d="M943.911,1875.679l2.993-2.867" fill="none" stroke="#080808" stroke-width="1"/>
      <path id="Tracé_4354" data-name="Tracé 4354" d="M960.9,1894.6l5.021-4.85" fill="none" stroke="#080808" stroke-width="1"/>
      <path id="Tracé_4355" data-name="Tracé 4355" d="M963.009,1896.428l4.9-4.353" fill="none" stroke="#080808" stroke-width="1"/>
      <path id="Tracé_4356" data-name="Tracé 4356" d="M966.447,1897.742l8.362,8.441" fill="none" stroke="#080808" stroke-linecap="round" stroke-width="1"/>
      <path id="Tracé_4357" data-name="Tracé 4357" d="M968.709,1895.435l8.22,8.534" fill="none" stroke="#080808" stroke-linecap="round" stroke-width="1"/>
      <path id="Tracé_4358" data-name="Tracé 4358" d="M970.628,1866.8l2.543,2.472-4.741,4.425,1.1,4.6,4.551,1.035,4.333-4.512,2.3,2.308-6.091,6.018-5.531-1.461-6.8,7.027-3.567-3.483,6.912-6.932-1.226-5.771Z" fill="none" stroke="#080808" stroke-width="1"/>
      <path id="Tracé_4359" data-name="Tracé 4359" d="M960.188,1891.186l-7.248,6.952,1.314,5.5-6.158,6-2.489-2.594,4.328-4.187-.8-4.72-4.624-.812-4.32,4.474-2.147-2.663,5.983-6,5.108,1.657,7.425-7.237Z" fill="none" stroke="#080808" stroke-width="1"/>
    </g>
    <g id="Ellipse_93" data-name="Ellipse 93" transform="translate(922 1851)" fill="none" stroke="#080808" stroke-width="1">
      <circle cx="37" cy="37" r="37" stroke="none"/>
      <circle cx="37" cy="37" r="36.5" fill="none"/>
    </g>
  </g>
</svg>
