<svg xmlns="http://www.w3.org/2000/svg" width="58.727" height="73.121" viewBox="0 0 58.727 73.121">
  <g id="Groupe_846" data-name="Groupe 846" transform="translate(-918.232 -5700.61)">
    <path id="Tracé_4340" data-name="Tracé 4340" d="M932.607,5722.718,929.7,5711.9s-.156-9.86,8.884-7.221c2.768-5.3,19.242-3.117,19.242-3.117a9.748,9.748,0,0,1,7.341,10.338c-.3.469-2.445,10.139-2.445,10.139s4.188-1.267,4.433,2.627c0-.042,0,4.9,0,4.9h-4.433s-1.994,14.44-14.791,14.075c-10.7-.305-14.6-10.16-15.607-13.876.016.067.04-.029,0-.2,0,.021,0-.121,0-.121a5.442,5.442,0,0,1-2.623.121c-1.664-.43-1.752-1.041-1.87-4.019a2.52,2.52,0,0,1,2.69-2.827Z" fill="none" stroke="#080808" stroke-width="1"/>
    <path id="Tracé_4341" data-name="Tracé 4341" d="M932.313,5721.541a2.2,2.2,0,0,0,.143.779c-.148,1.067,3.02,1.7,4.135-1.584.108-.252,0-5.232,0-5.232a2.19,2.19,0,0,1,2.318-2.239c.092-.119,17.072,0,17.072,0s3.376-.553,3.086,3.322c-.013.4,0,4.149,0,4.149s1.072,2.583,3.171,1.708c.163.123,0,9.227,0,9.227" fill="none" stroke="#080808" stroke-width="1"/>
    <path id="Tracé_4342" data-name="Tracé 4342" d="M932.313,5729.7l.219-7.358" fill="none" stroke="#080808" stroke-width="1"/>
    <path id="Tracé_4343" data-name="Tracé 4343" d="M967.156,5729.7s.967,4.8-7.006,7.116c-.088-.019-6.54,0-6.54,0" fill="none" stroke="#080808" stroke-width="1"/>
    <g id="Rectangle_441" data-name="Rectangle 441" transform="translate(946 5734)" fill="none" stroke="#080808" stroke-width="1">
      <rect width="8" height="6" rx="3" stroke="none"/>
      <rect x="0.5" y="0.5" width="7" height="5" rx="2.5" fill="none"/>
    </g>
    <path id="Tracé_4344" data-name="Tracé 4344" d="M939.254,5740.733v7.292s.981,6.908,8.087,6.908,8.257-6.908,8.257-6.908v-6.507" fill="none" stroke="#080808" stroke-width="1"/>
    <path id="Tracé_4351" data-name="Tracé 4351" d="M951.1,5605.866s.49,7.321,8.076,7.336,8.492-7.336,8.492-7.336l14.635,5.2s5.183,2.413,6,9.92-2.489,10.387-2.489,10.387l-55.11-.429v-11.171s1-6.846,7.286-9.629C938.016,5610.079,951.1,5605.866,951.1,5605.866Z" transform="translate(-12 142)" fill="#2a768d"/>
    <g id="Groupe_845" data-name="Groupe 845">
      <path id="Tracé_4349" data-name="Tracé 4349" d="M918.733,5772.811l-.076-10.824s-.482-2.114,2.095-5.752c.163-.106,11.758,2.532,12.156,16.576C932.85,5773.05,918.733,5772.811,918.733,5772.811Z" fill="#FFFFFF"/>
      <path id="Tracé_4350" data-name="Tracé 4350" d="M933.259,5772.811v-10.736s.1-2.2-2.481-5.84c-.163-.106-11.261,2.532-11.66,16.576C919.177,5773.05,933.259,5772.811,933.259,5772.811Z" transform="translate(43)" fill="#FFFFFF"/>
    </g>
    <path id="Tracé_4345" data-name="Tracé 4345" d="M955.6,5747.833l14.56,5.129s5.6,2.4,6.276,10.665c-.053.03,0,9.6,0,9.6l-57.7-.2v-10.888s-.166-6.873,7.683-10.122l.427-.167,12.7-4.023" fill="none" stroke="#080808" stroke-width="1"/>
    <path id="Tracé_4346" data-name="Tracé 4346" d="M920.68,5756.216s12.613,2.226,12.3,16.9" fill="none" stroke="#080808" stroke-width="1"/>
    <path id="Tracé_4347" data-name="Tracé 4347" d="M973.771,5756.216s-12.627,3.535-11.556,16.927" fill="none" stroke="#080808" stroke-width="1"/>
  </g>
</svg>
