<svg xmlns="http://www.w3.org/2000/svg" width="23" height="18.333" viewBox="0 0 23 18.333">
  <g id="Groupe_840" data-name="Groupe 840" transform="translate(-539 -6012)">
    <g id="Tracé_4337" data-name="Tracé 4337" transform="translate(540 6013)" fill="none">
      <path d="M1,0H20a1,1,0,0,1,1,1V15.333a1,1,0,0,1-1,1H1a1,1,0,0,1-1-1V1A1,1,0,0,1,1,0Z" stroke="none"/>
      <path d="M 1 -3.814697265625e-06 C 0.4477195739746094 -3.814697265625e-06 0 0.4477167129516602 0 0.9999971389770508 L 0 15.33333683013916 C 0 15.88561725616455 0.4477195739746094 16.33333778381348 1 16.33333778381348 L 20 16.33333778381348 C 20.55228042602539 16.33333778381348 21 15.88561725616455 21 15.33333683013916 L 21 0.9999971389770508 C 21 0.4477167129516602 20.55228042602539 -3.814697265625e-06 20 -3.814697265625e-06 L 1 -3.814697265625e-06 M 1 -1.000003814697266 L 20 -1.000003814697266 C 21.1028003692627 -1.000003814697266 22 -0.1028022766113281 22 0.9999971389770508 L 22 15.33333683013916 C 22 16.43613624572754 21.1028003692627 17.33333778381348 20 17.33333778381348 L 1 17.33333778381348 C -0.1028003692626953 17.33333778381348 -1 16.43613624572754 -1 15.33333683013916 L -1 0.9999971389770508 C -1 -0.1028022766113281 -0.1028003692626953 -1.000003814697266 1 -1.000003814697266 Z" stroke="none" fill="#000000"/>
    </g>
    <g id="Groupe_839" data-name="Groupe 839" transform="translate(542.57 6015.671)">
      <path id="Tracé_4334" data-name="Tracé 4334" d="M543.74,6016.435l7.66,7.116,8.007-7.116" transform="translate(-543.401 -6016.435)" fill="none" stroke="#000000" stroke-linecap="round" stroke-width="1"/>
      <path id="Tracé_4335" data-name="Tracé 4335" d="M549.072,6023.5l-5.767,5.536" transform="translate(-543.305 -6018.005)" fill="none" stroke="#000000" stroke-linecap="round" stroke-width="1"/>
      <path id="Tracé_4336" data-name="Tracé 4336" d="M556,6023.5l6.114,5.6" transform="translate(-546.126 -6018.005)" fill="none" stroke="#000000" stroke-linecap="round" stroke-width="1"/>
    </g>
  </g>
</svg>
